<svg xmlns="http://www.w3.org/2000/svg" width="1200" height="720" viewBox="0 0 1200 720" fill="none">
  <rect width="1200" height="720" rx="32" fill="#F6F1EA"/>
  <rect x="64" y="48" width="1072" height="624" rx="28" fill="#FFFDF9" stroke="#E7DDD3" stroke-width="2"/>
  <rect x="112" y="108" width="976" height="122" rx="24" fill="#FFFFFF" stroke="#E7DDD3" stroke-width="2"/>
  <rect x="112" y="252" width="976" height="122" rx="24" fill="#FFFFFF" stroke="#E7DDD3" stroke-width="2"/>
  <rect x="112" y="396" width="976" height="122" rx="24" fill="#FFFFFF" stroke="#E7DDD3" stroke-width="2"/>
  <circle cx="172" cy="169" r="28" fill="#C85520" fill-opacity=".12"/>
  <circle cx="172" cy="313" r="28" fill="#C85520" fill-opacity=".12"/>
  <circle cx="172" cy="457" r="28" fill="#C85520" fill-opacity=".12"/>
  <rect x="224" y="148" width="220" height="20" rx="10" fill="#2F2219" fill-opacity=".10"/>
  <rect x="224" y="292" width="220" height="20" rx="10" fill="#2F2219" fill-opacity=".10"/>
  <rect x="224" y="436" width="220" height="20" rx="10" fill="#2F2219" fill-opacity=".10"/>
  <rect x="224" y="182" width="600" height="16" rx="8" fill="#2F2219" fill-opacity=".08"/>
  <rect x="224" y="326" width="600" height="16" rx="8" fill="#2F2219" fill-opacity=".08"/>
  <rect x="224" y="470" width="600" height="16" rx="8" fill="#2F2219" fill-opacity=".08"/>
  <text x="112" y="610" fill="#6A5B50" font-family="Arial, sans-serif" font-size="24">Placeholder image. Replace with an actual screen capture of the history page.</text>
</svg>
