<svg xmlns="http://www.w3.org/2000/svg" width="1200" height="720" viewBox="0 0 1200 720" fill="none">
  <rect width="1200" height="720" rx="32" fill="#F6F1EA"/>
  <rect x="64" y="48" width="1072" height="624" rx="28" fill="#FFFDF9" stroke="#E7DDD3" stroke-width="2"/>
  <rect x="112" y="110" width="976" height="170" rx="24" fill="#FFFFFF" stroke="#E7DDD3" stroke-width="2"/>
  <rect x="148" y="148" width="120" height="20" rx="10" fill="#2F2219" fill-opacity=".10"/>
  <rect x="148" y="192" width="740" height="18" rx="9" fill="#2F2219" fill-opacity=".08"/>
  <rect x="148" y="224" width="650" height="18" rx="9" fill="#2F2219" fill-opacity=".08"/>
  <rect x="112" y="308" width="976" height="220" rx="24" fill="#FFFFFF" stroke="#E7DDD3" stroke-width="2"/>
  <rect x="148" y="340" width="180" height="44" rx="14" fill="#FFF4EE" stroke="#F1C8B4" stroke-width="2"/>
  <rect x="340" y="340" width="180" height="44" rx="14" fill="#FBF7F2" stroke="#E7DDD3" stroke-width="2"/>
  <rect x="532" y="340" width="180" height="44" rx="14" fill="#FBF7F2" stroke="#E7DDD3" stroke-width="2"/>
  <rect x="148" y="420" width="820" height="20" rx="10" fill="#2F2219" fill-opacity=".08"/>
  <rect x="148" y="454" width="860" height="20" rx="10" fill="#2F2219" fill-opacity=".08"/>
  <rect x="148" y="600" width="976" height="64" rx="20" fill="#C85520"/>
  <text x="112" y="572" fill="#6A5B50" font-family="Arial, sans-serif" font-size="24">Placeholder image. Replace with an actual screen capture of the result page.</text>
</svg>
